<svg width="306" height="90" viewBox="0 0 306 90" fill="none" xmlns="http://www.w3.org/2000/svg">
<path d="M305.654 30.4607L304.339 31.2797L299.743 34.1533L284.725 43.478C284.573 43.5796 284.387 43.6184 284.206 43.5862C284.025 43.554 283.864 43.4534 283.757 43.3056C280.46 39.08 276.152 35.7412 271.226 33.5929C271.117 33.5507 271.02 33.4828 270.943 33.3952C270.866 33.3075 270.812 33.2027 270.785 33.0897C270.758 32.9767 270.759 32.8589 270.788 32.7463C270.817 32.6338 270.873 32.5299 270.951 32.4435L276.805 25.5038C277.585 24.5825 278.156 23.5053 278.481 22.3452C278.806 21.1851 278.876 19.9692 278.687 18.7798C278.498 17.5904 278.054 16.4554 277.385 15.4514C276.716 14.4474 275.838 13.598 274.81 12.9607L268.234 8.88026L264.635 6.63889C264.483 6.54651 264.303 6.51163 264.128 6.54067C263.953 6.56971 263.794 6.66072 263.681 6.79694L260.92 10.0441L232.851 43.2912C232.732 43.4237 232.57 43.5107 232.393 43.5369C232.216 43.5631 232.035 43.527 231.882 43.4349L229.83 42.1561L223.543 38.3056C223.487 38.272 223.424 38.2539 223.359 38.2531C223.294 38.2524 223.23 38.2691 223.174 38.3014C223.117 38.3338 223.071 38.3806 223.039 38.437C223.008 38.4933 222.992 38.5571 222.993 38.6217V57.7165H219.655V36.2941C219.654 36.1592 219.619 36.0267 219.554 35.9087C219.488 35.7907 219.393 35.691 219.279 35.6188L213.584 32.0699L210.997 30.4607C210.889 30.3952 210.8 30.3034 210.739 30.194C210.677 30.0845 210.645 29.9612 210.645 29.8357C210.645 29.7103 210.677 29.5869 210.739 29.4775C210.8 29.3681 210.889 29.2762 210.997 29.2107L251.366 4.11015L255.948 1.23659L257.682 0.173371C257.856 0.0602483 258.06 0 258.268 0C258.476 0 258.679 0.0602483 258.853 0.173371L265.618 4.36877L269.78 6.95498L280.433 13.5785L284.61 16.1791L305.611 29.2107C305.719 29.2762 305.808 29.3681 305.869 29.4775C305.931 29.5869 305.963 29.7103 305.963 29.8357C305.963 29.9612 305.931 30.0845 305.869 30.194C305.808 30.3034 305.719 30.3952 305.611 30.4607" fill="#2E2B8F"/>
<path d="M271.283 68.377C270.217 70.8411 268.462 72.9496 266.227 74.4524C263.993 75.9553 261.371 76.7895 258.673 76.856C255.976 76.9225 253.316 76.2187 251.009 74.8279C248.702 73.4371 246.844 71.4177 245.656 69.0092C245.098 67.8713 244.699 66.6628 244.471 65.4173C244.3 64.5707 244.218 63.7088 244.225 62.8454C244.218 59.4836 245.435 56.2327 247.651 53.6931C248.236 53.0154 248.89 52.3991 249.602 51.854C252.065 49.8984 255.122 48.8298 258.274 48.8224H258.419C260.74 48.8455 263.02 49.4382 265.055 50.548C267.091 51.6578 268.819 53.2502 270.086 55.1837C271.353 57.1172 272.12 59.3319 272.319 61.6311C272.518 63.9303 272.142 66.2426 271.225 68.3627M279.984 46.3655C276.682 42.0456 272.15 38.8119 266.976 37.0839C265.444 36.5623 263.867 36.187 262.264 35.9632C262.203 35.9603 262.145 35.9402 262.095 35.9053C262.046 35.8704 262.007 35.8222 261.984 35.7663C261.962 35.7104 261.955 35.6492 261.967 35.5899C261.978 35.5306 262.006 35.4757 262.047 35.4316L265.256 31.6242L272.295 23.2908C272.72 22.7819 273.03 22.1886 273.206 21.5506C273.381 20.9126 273.417 20.2446 273.312 19.5916C273.207 18.9385 272.962 18.3154 272.595 17.7639C272.227 17.2125 271.745 16.7455 271.182 16.3943L265.617 12.9173C265.463 12.8239 265.281 12.7885 265.103 12.8175C264.926 12.8465 264.764 12.938 264.649 13.0753L263.507 14.5121L260.616 17.9173L256.815 22.4144L252.956 26.9834L249.92 30.604L245.093 36.3512L240.598 41.6816L238.357 44.1816C237.765 44.9 237.114 45.6184 236.551 46.3655C233.918 49.7968 232.146 53.8017 231.379 58.049C230.612 62.2963 230.874 66.6639 232.142 70.7908C232.671 72.5249 233.379 74.2004 234.252 75.7908C236.055 79.0694 238.519 81.9428 241.49 84.2315C244.461 86.5201 247.875 88.1747 251.519 89.0916C255.163 90.0086 258.957 90.1682 262.666 89.5605C266.375 88.9528 269.917 87.5909 273.072 85.56C276.227 83.529 278.926 80.8728 281.001 77.7573C283.076 74.6419 284.482 71.1343 285.131 67.4541C285.779 63.7739 285.657 60.0001 284.772 56.369C283.886 52.7379 282.256 49.3275 279.984 46.3512" fill="#2E2B8F"/>
<path d="M265.08 62.8455C265.08 63.4023 265.012 63.9571 264.878 64.4978C264.459 66.1692 263.414 67.6187 261.956 68.5508C260.499 69.483 258.739 69.8277 257.035 69.5145C255.331 69.2014 253.811 68.2541 252.786 66.8656C251.76 65.4772 251.305 63.7522 251.515 62.0422C251.724 60.3322 252.582 58.766 253.913 57.6628C255.244 56.5595 256.948 56.0023 258.677 56.1048C260.407 56.2072 262.033 56.9615 263.222 58.214C264.412 59.4665 265.077 61.1229 265.08 62.8455Z" fill="#59AB33"/>
<path d="M222.991 57.6733V60.3026C222.987 60.5187 222.899 60.7249 222.746 60.8777C222.592 61.0304 222.385 61.1179 222.167 61.1216H220.476C220.259 61.1179 220.051 61.0304 219.898 60.8777C219.744 60.7249 219.656 60.5187 219.652 60.3026V57.6733H222.991Z" fill="#2E2B8F"/>
<path d="M223.904 62.4578C223.904 62.5493 223.867 62.637 223.802 62.7016C223.737 62.7663 223.649 62.8026 223.557 62.8026H219.062C218.97 62.8026 218.881 62.7663 218.816 62.7016C218.751 62.637 218.715 62.5493 218.715 62.4578L219.64 57.6733H222.979L223.904 62.4578Z" fill="#59AB33"/>
<path d="M20.856 51.7682C20.6708 51.57 20.4474 51.4106 20.1992 51.2996C19.951 51.1885 19.6828 51.128 19.4107 51.1217C18.9768 51.1175 18.5516 51.242 18.1892 51.4792C17.8269 51.7164 17.5438 52.0555 17.3763 52.4534C17.2088 52.8512 17.1643 53.2897 17.2486 53.7127C17.333 54.1358 17.5422 54.5243 17.8497 54.8286C18.0542 55.0322 18.2977 55.1931 18.5658 55.3016C18.8339 55.4102 19.1212 55.4643 19.4107 55.4608C19.8348 55.4466 20.2455 55.309 20.5917 55.065C20.9379 54.8211 21.2045 54.4815 21.3584 54.0883C21.5122 53.6952 21.5467 53.2658 21.4574 52.8534C21.3681 52.4409 21.159 52.0636 20.856 51.7682Z" fill="#2E2B8F"/>
<path d="M22.2443 34.7423V44.2969C22.2577 44.9308 22.0978 45.5565 21.7818 46.1072C21.4819 46.6399 21.0423 47.0819 20.5098 47.386C19.9539 47.6956 19.3258 47.8541 18.6887 47.8457H7.54485V48.0325C7.5589 49.1294 7.27957 50.2103 6.73544 51.1647C6.20156 52.0836 5.43391 52.8466 4.50956 53.3774C3.55063 53.9226 2.46335 54.2052 1.35865 54.1963H0V50.4894H1.31529C1.76267 50.4968 2.20484 50.3931 2.6017 50.1877C2.97879 49.992 3.28647 49.6861 3.48335 49.3113C3.69 48.9168 3.79432 48.4772 3.78687 48.0325V34.498H7.50149V44.1389H17.4312C17.708 44.1344 17.9744 44.0326 18.1828 43.8515C18.2993 43.7324 18.3891 43.5902 18.4464 43.4342C18.5037 43.2782 18.5271 43.112 18.5152 42.9463V34.7423H22.2443Z" fill="#2E2B8F"/>
<path d="M34.8477 44.1099V44.2392L35.1512 44.1099H34.8477Z" fill="#2E2B8F"/>
<path d="M34.833 44.239V44.0523H31.7832C31.3725 44.0368 30.9734 43.9128 30.627 43.6931C30.254 43.4509 29.9423 43.1264 29.7164 42.7448C29.4985 42.3482 29.3842 41.9036 29.384 41.4517V39.8856C29.3819 39.4151 29.496 38.9514 29.7164 38.535C29.9399 38.1544 30.2585 37.8376 30.6414 37.6155C31.0535 37.3924 31.5164 37.2786 31.9856 37.285H32.2891C32.6304 37.2736 32.9705 37.3315 33.2886 37.455C33.6066 37.5785 33.896 37.7651 34.1392 38.0034C34.3744 38.2559 34.5568 38.5523 34.6759 38.8754C34.795 39.1985 34.8484 39.5418 34.833 39.8856V44.0523H35.151L34.833 44.239ZM76.7488 39.239C76.2186 38.2523 75.423 37.4316 74.4507 36.8683C73.4458 36.3038 72.3094 36.0115 71.1552 36.0207H66.6601L69.8544 29.7563L66.8769 28.5781L61.3267 38.0752L61.717 39.6988H71.1552C71.6467 39.6935 72.1354 39.7712 72.6006 39.9287C72.9862 40.0779 73.3184 40.338 73.5546 40.6758C73.7846 41.0571 73.8999 41.4958 73.887 41.9402C73.8898 42.3226 73.8058 42.7008 73.6413 43.0465C73.5019 43.3649 73.2704 43.6349 72.9764 43.8224C72.6711 44.0048 72.3208 44.0993 71.9646 44.0954H56.0655C55.7647 44.1309 55.4596 44.0947 55.1755 43.9898C54.8915 43.8849 54.6367 43.7142 54.4323 43.4919C54.0987 43.0124 53.9359 42.4359 53.9697 41.854V34.6701H50.2551V41.854C50.2867 42.4291 50.1294 42.9989 49.807 43.4775C49.6055 43.6996 49.3533 43.8703 49.0716 43.9753C48.7899 44.0803 48.487 44.1166 48.1882 44.081H38.5765V39.7706C38.5888 38.6539 38.3046 37.5537 37.7526 36.581C37.2316 35.6279 36.4499 34.8409 35.4979 34.3109C34.5227 33.7684 33.421 33.4909 32.3036 33.5063H32.0001C30.8736 33.4912 29.7626 33.7685 28.7769 34.3109C27.8248 34.8409 27.0431 35.6279 26.5221 36.581C25.9814 37.5575 25.7026 38.656 25.7127 39.7706V41.3942C25.6864 42.5031 25.9561 43.5992 26.4943 44.5708C27.0325 45.5425 27.8201 46.355 28.7769 46.9258C29.6922 47.4794 30.7408 47.7772 31.8122 47.7879H34.8619V48.1471C34.8777 48.4644 34.8296 48.7816 34.7204 49.0801C34.6112 49.3787 34.4431 49.6525 34.2259 49.8856C33.5896 50.405 32.7944 50.6938 31.9711 50.7046C30.5399 50.7876 29.1041 50.6666 27.7073 50.3454V53.7793C29.5853 54.3089 31.55 54.4652 33.4888 54.239C34.9114 54.0755 36.2361 53.4373 37.2467 52.4287C38.0923 51.507 38.5524 50.2995 38.5331 49.0523V47.8166H48.1015C48.8386 47.887 49.5823 47.7947 50.2794 47.5463C50.9765 47.2979 51.6098 46.8996 52.1341 46.3798C52.3628 46.6051 52.6093 46.8117 52.8713 46.9977C53.6221 47.5705 54.5409 47.8833 55.4874 47.8885H72.2103C73.1643 47.8942 74.1025 47.6462 74.9276 47.1701C75.7373 46.6977 76.4097 46.0244 76.8789 45.216C77.3642 44.3978 77.6189 43.4648 77.6161 42.5149C77.6252 41.3812 77.3308 40.2655 76.7633 39.2821" fill="#2E2B8F"/>
<path d="M53.6973 32.1274C53.4907 31.9306 53.3265 31.6941 53.2146 31.4323C53.1028 31.1705 53.0458 30.8888 53.0469 30.6044C53.0646 30.0589 53.2983 29.5425 53.6973 29.1676C53.8974 28.9611 54.1378 28.7973 54.4036 28.6862C54.6695 28.575 54.9554 28.5188 55.2438 28.5211C55.819 28.5248 56.3698 28.7526 56.7779 29.1555C57.186 29.5585 57.4188 30.1045 57.4264 30.6762C57.419 31.2507 57.1871 31.7997 56.7798 32.2073C56.3725 32.6149 55.8217 32.849 55.2438 32.8601C54.9545 32.8597 54.6682 32.8009 54.4024 32.6873C54.1366 32.5737 53.8967 32.4076 53.6973 32.1992" fill="#2E2B8F"/>
<path d="M47.7571 32.1274C47.555 31.9279 47.3948 31.6906 47.2856 31.4292C47.1765 31.1678 47.1206 30.8874 47.1211 30.6044C47.1287 30.0302 47.3635 29.482 47.7747 29.0787C48.1859 28.6753 48.7404 28.4492 49.318 28.4492C49.8907 28.4567 50.4378 28.6861 50.8428 29.0887C51.2478 29.4913 51.4786 30.0351 51.4861 30.6044C51.4788 31.1764 51.249 31.7234 50.8448 32.1306C50.4405 32.5378 49.8933 32.7735 49.318 32.7883C49.0263 32.7898 48.7373 32.7319 48.4688 32.6183C48.2004 32.5046 47.9582 32.3375 47.7571 32.1274Z" fill="#2E2B8F"/>
<path d="M80.5508 26.452H86.8526V24.4405H80.5508V26.452ZM85.8264 20.7048C85.2425 20.2081 84.4992 19.9351 83.7306 19.9351C82.962 19.9351 82.2187 20.2081 81.6348 20.7048C81.3833 20.9662 81.1872 21.2751 81.0581 21.6133C80.929 21.9514 80.8695 22.3118 80.8832 22.6732C80.8673 22.9973 80.918 23.3211 81.0324 23.625C81.1467 23.9289 81.3222 24.2063 81.5481 24.4405C81.5926 24.4919 81.6409 24.5399 81.6926 24.5842C82.2623 25.0519 82.9448 25.3639 83.6728 25.4893L84.3955 24.6847C84.1983 24.6263 84.009 24.5443 83.8318 24.4405C83.5721 24.3095 83.3487 24.1171 83.1814 23.8801C82.9554 23.5966 82.824 23.25 82.8056 22.8888C82.7974 22.7676 82.815 22.6461 82.8574 22.5322C82.8997 22.4183 82.9658 22.3146 83.0512 22.2278C83.2439 22.0764 83.4853 21.9998 83.7306 22.0123C83.8643 22.0096 83.9971 22.0337 84.1213 22.083C84.2454 22.1324 84.3583 22.2061 84.4533 22.2997C84.6711 22.5206 84.8041 22.8104 84.8291 23.1186H86.6936C86.6967 22.2598 86.3889 21.4286 85.8264 20.7767M81.8661 47.8457H85.5807V28.6071H81.8661V47.8457Z" fill="#2E2B8F"/>
<path d="M107.087 44.2539C105.937 44.2539 104.834 43.7997 104.021 42.9914C103.208 42.1831 102.751 41.0867 102.751 39.9435C102.744 39.8575 102.744 39.771 102.751 39.6849C102.789 38.9436 103.02 38.2247 103.42 37.5979C103.82 36.9711 104.376 36.4577 105.035 36.1073C105.669 35.7666 106.38 35.5889 107.101 35.5901C108.265 35.5901 109.381 36.0495 110.203 36.8673C111.026 37.6851 111.488 38.7942 111.488 39.9507C111.488 41.1072 111.026 42.2164 110.203 43.0341C109.381 43.8519 108.265 44.3113 107.101 44.3113M114.704 35.3889C114.083 34.1825 113.104 33.1945 111.9 32.5585C110.642 31.9285 109.247 31.6129 107.839 31.6389C106.792 31.6369 105.757 31.8574 104.803 32.2855C103.877 32.6774 103.044 33.2601 102.361 33.9952C102.44 32.8599 102.744 31.7515 103.257 30.7338C103.749 29.7794 104.481 28.9677 105.381 28.3774C106.374 27.7388 107.539 27.4179 108.72 27.4579C109.616 27.4518 110.51 27.519 111.394 27.659C112.582 27.8868 113.754 28.1843 114.906 28.5498L114.979 24.5843H114.791C113.741 24.2056 112.67 23.889 111.582 23.6361C110.607 23.4402 109.614 23.344 108.619 23.3487C107.078 23.2782 105.54 23.5251 104.099 24.074C102.659 24.6229 101.349 25.4619 100.25 26.5383C98.169 28.6648 97.1139 32.1562 97.1139 36.9694C97.0965 38.9002 97.4497 40.8166 98.1546 42.6159C98.7865 44.25 99.8809 45.6672 101.305 46.6964C102.867 47.7744 104.739 48.319 106.639 48.2481C108.273 48.2694 109.891 47.9153 111.365 47.2136C112.69 46.5815 113.804 45.584 114.574 44.3401C115.358 42.9771 115.753 41.4271 115.716 39.8573C115.758 38.3182 115.416 36.7926 114.719 35.4177" fill="#2E2B8F"/>
<path d="M133.783 28.2479C133.579 28.0467 133.338 27.8873 133.073 27.7788C132.807 27.6703 132.523 27.6149 132.236 27.6158C131.949 27.6141 131.665 27.6692 131.399 27.7777C131.134 27.8862 130.892 28.046 130.69 28.2479C130.482 28.4437 130.316 28.6799 130.205 28.942C130.093 29.2041 130.036 29.4862 130.039 29.7709C130.047 30.3478 130.281 30.899 130.691 31.307C131.101 31.7149 131.656 31.9474 132.236 31.9548C132.524 31.9562 132.81 31.8997 133.076 31.7886C133.342 31.6775 133.582 31.5141 133.783 31.3083C133.99 31.1093 134.155 30.8704 134.267 30.6061C134.379 30.3418 134.435 30.0577 134.433 29.7709C134.436 29.4862 134.38 29.2041 134.268 28.942C134.156 28.6799 133.991 28.4437 133.783 28.2479Z" fill="#2E2B8F"/>
<path d="M191.959 41.452C191.961 41.9132 191.847 42.3676 191.627 42.7738C191.411 43.154 191.103 43.4748 190.731 43.7077C190.364 43.9402 189.937 44.0602 189.502 44.0526C188.92 44.0577 188.344 43.9401 187.811 43.7077C187.296 43.4919 186.84 43.157 186.481 42.7307V39.8572C186.473 39.3814 186.588 38.9115 186.814 38.4922C187.029 38.1055 187.35 37.7869 187.739 37.5727C188.156 37.3509 188.625 37.2419 189.098 37.2566H189.372C189.715 37.2387 190.058 37.2921 190.379 37.4133C190.7 37.5346 190.992 37.721 191.237 37.9606C191.482 38.2106 191.672 38.5079 191.797 38.8342C191.921 39.1605 191.976 39.5087 191.959 39.8572V41.452ZM194.85 36.6819C194.31 35.7381 193.527 34.9545 192.581 34.4118C191.605 33.8555 190.497 33.5678 189.372 33.5784H189.098C187.968 33.5674 186.856 33.855 185.874 34.4118C184.922 34.9464 184.137 35.732 183.605 36.6819C183.048 37.6578 182.764 38.764 182.781 39.8859V42.6158C182.792 42.8134 182.762 43.0112 182.692 43.1966C182.623 43.382 182.515 43.5512 182.377 43.6934C182.23 43.8313 182.058 43.9391 181.869 44.0106C181.681 44.0821 181.48 44.1159 181.278 44.11H178.026V34.498H174.311V48.0325C174.319 48.4772 174.215 48.9167 174.008 49.3112C173.816 49.6895 173.507 49.9966 173.126 50.1876C172.729 50.393 172.287 50.4968 171.84 50.4894H170.395V54.1962H171.84C172.944 54.2031 174.031 53.9206 174.991 53.3773C175.931 52.8377 176.709 52.0572 177.243 51.1171C177.777 50.177 178.047 49.1118 178.026 48.0325V47.8457H181.278C181.99 47.8531 182.696 47.706 183.345 47.4146C183.953 47.1307 184.498 46.7303 184.949 46.2365C185.592 46.713 186.304 47.0908 187.06 47.3572C187.847 47.6221 188.672 47.7579 189.502 47.7595C190.595 47.7683 191.667 47.4694 192.595 46.8974C193.525 46.3324 194.3 45.5476 194.85 44.6129C195.4 43.6499 195.685 42.5594 195.674 41.452V39.8859C195.692 38.764 195.407 37.6578 194.85 36.6819Z" fill="#2E2B8F"/>
<path d="M159.122 39.2394C159.69 40.2228 159.984 41.3385 159.975 42.4722C159.983 43.4208 159.733 44.3539 159.253 45.1733C158.778 45.9826 158.101 46.6559 157.287 47.1273C156.467 47.6036 155.533 47.8517 154.584 47.8457H134.161V48.0325C134.176 49.1124 133.902 50.1768 133.366 51.1163C132.83 52.0557 132.051 52.8361 131.111 53.3773C130.152 53.9226 129.065 54.2052 127.96 54.1963H126.602V50.4894H127.96C128.408 50.4968 128.85 50.3931 129.247 50.1877C129.627 49.9967 129.936 49.6895 130.128 49.3112C130.335 48.9167 130.439 48.4772 130.432 48.0325V34.498H134.161V44.1388H154.396C154.749 44.153 155.099 44.0604 155.398 43.8731C155.698 43.6859 155.933 43.4128 156.073 43.09C156.232 42.7431 156.311 42.365 156.304 41.9836C156.324 41.5385 156.208 41.0979 155.972 40.7193C155.741 40.3819 155.414 40.1215 155.032 39.9722C154.567 39.8147 154.078 39.7369 153.587 39.7423H144.134L143.744 38.1187L149.308 28.6216L152.271 29.7997L149.092 36.0641H153.587C154.737 36.0527 155.869 36.3453 156.868 36.9118C157.85 37.457 158.661 38.2628 159.209 39.2394" fill="#2E2B8F"/>
<path d="M167.924 28.6069H164.195V47.8311H167.924V28.6069Z" fill="#2E2B8F"/>
<path d="M8.5436 72.8888V76.136C8.5556 76.6786 8.42084 77.2145 8.15337 77.6877C7.89973 78.124 7.52951 78.4821 7.08376 78.7222C6.61225 78.9862 6.07833 79.1202 5.53724 79.1101H5.40712C4.87267 79.118 4.34514 78.9894 3.87503 78.7365C3.42547 78.4951 3.05447 78.1312 2.80547 77.6877C2.53799 77.2145 2.40323 76.6786 2.41523 76.136V72.6877H0.0159069V76.136C0.00613781 77.092 0.250433 78.0337 0.724126 78.8658C1.17628 79.6747 1.84719 80.3417 2.66092 80.7911C3.49617 81.2665 4.44475 81.5097 5.40712 81.4951H5.53724C6.504 81.5081 7.45678 81.2651 8.29787 80.7911C9.10838 80.3374 9.7783 79.6715 10.2347 78.8658C10.7194 78.0375 10.9691 77.0941 10.9574 76.136V72.8888H8.5436ZM4.27973 82.7452C4.14983 82.6141 3.99439 82.5108 3.82289 82.4416C3.6514 82.3725 3.46746 82.3389 3.28242 82.3429C2.89908 82.3429 2.53147 82.4942 2.26041 82.7637C1.98935 83.0331 1.83705 83.3986 1.83705 83.7796C1.83302 83.9636 1.86688 84.1464 1.93647 84.3169C2.00606 84.4873 2.10997 84.6419 2.24179 84.771C2.51101 85.0364 2.87435 85.1861 3.25353 85.1877C3.63687 85.1877 4.00453 85.0363 4.27559 84.7669C4.54665 84.4974 4.6989 84.132 4.6989 83.7509C4.69742 83.381 4.55246 83.0259 4.2942 82.7595M8.1389 82.7595C7.87009 82.5048 7.51296 82.3627 7.14159 82.3627C6.77021 82.3627 6.41308 82.5048 6.14428 82.7595C5.88073 83.0236 5.73046 83.379 5.72511 83.7509C5.7391 84.0224 5.83031 84.2844 5.98813 84.5064C6.14594 84.7285 6.36392 84.9015 6.61669 85.0053C6.86945 85.1091 7.14663 85.1395 7.41608 85.0929C7.68553 85.0464 7.93619 84.9248 8.1389 84.7423C8.27737 84.6167 8.38758 84.4635 8.46231 84.2927C8.53704 84.1218 8.57458 83.9372 8.57249 83.7509C8.5633 83.3769 8.40775 83.0213 8.1389 82.7595ZM12.475 67.7164C11.7695 67.7112 11.0755 67.8948 10.4659 68.248C9.8603 68.5856 9.36015 69.0828 9.02056 69.6848C8.66365 70.2947 8.48357 70.9909 8.50024 71.6963V75.3888H10.914V71.6963C10.9112 71.4124 10.9755 71.1319 11.1019 70.8773C11.2332 70.6417 11.4286 70.4475 11.6656 70.317C11.9083 70.182 12.1824 70.1126 12.4606 70.1158H13.6169V76.8975H16.0306V67.7308L12.475 67.7164ZM15.6404 76.8831H18.1843V74.498H15.6404V76.8831Z" fill="#59AB33"/>
<path d="M16.9961 74.8717V76.4952L18.0368 76.8688V74.4694L16.9961 74.8717ZM19.8868 68.4061V73.0326C19.9068 73.404 19.8054 73.772 19.5977 74.0814C19.468 74.2279 19.3036 74.3401 19.1194 74.4078C18.9353 74.4755 18.7371 74.4966 18.5427 74.4694H18.0223V76.8688H18.5137C18.9979 76.9127 19.4857 76.8477 19.9411 76.6786C20.3965 76.5094 20.8078 76.2405 21.1443 75.8918C21.2887 75.7425 21.4105 75.5731 21.5057 75.3889C22.0325 74.3669 22.3004 73.2326 22.2862 72.0843V68.478L19.8868 68.4061ZM21.8525 64.7424C21.7255 64.6105 21.573 64.5056 21.4041 64.4339C21.2351 64.3623 21.0533 64.3255 20.8697 64.3257C20.4905 64.3273 20.1271 64.4769 19.8579 64.7424C19.5909 65.01 19.4404 65.3712 19.4388 65.7481C19.4386 65.9307 19.4756 66.1114 19.5477 66.2793C19.6197 66.4472 19.7252 66.5989 19.8579 66.7251C19.9877 66.8613 20.1449 66.9687 20.3192 67.0405C20.4935 67.1123 20.6811 67.1468 20.8697 67.1418C21.0538 67.1455 21.2367 67.1102 21.4061 67.0384C21.5756 66.9666 21.7277 66.8598 21.8525 66.7251C21.9899 66.6018 22.0995 66.451 22.1743 66.2826C22.249 66.1143 22.2871 65.9321 22.2862 65.7481C22.2807 65.3691 22.1249 65.0076 21.8525 64.7424ZM23.6448 74.4694C23.4504 74.4954 23.2526 74.4736 23.0687 74.406C22.8847 74.3383 22.7203 74.2269 22.5897 74.0814C22.3698 73.7771 22.2626 73.4065 22.2862 73.0326V68.478H19.8724V73.2768C19.9242 74.2979 20.3693 75.26 21.1154 75.9636C21.2555 76.1172 21.4104 76.2567 21.5779 76.3803C22.0721 76.7424 22.6695 76.9386 23.2835 76.9406H24.1507V74.5412L23.6448 74.4694Z" fill="#59AB33"/>
<path d="M22.4609 74.8717V76.4953L23.516 76.8688V74.4694L22.4609 74.8717ZM32.1883 76.8976C32.204 77.3093 32.1352 77.72 31.9859 78.1044C31.8726 78.425 31.6601 78.7016 31.3789 78.8947C31.0842 79.1018 30.7274 79.2032 30.3671 79.182C29.9956 79.2003 29.6274 79.105 29.312 78.9091C29.0323 78.7209 28.8278 78.4413 28.7339 78.1188C28.5981 77.7262 28.5344 77.3125 28.5459 76.8976H30.2226C30.9098 76.9027 31.5902 76.7606 32.2172 76.4809L32.1883 76.8976ZM28.5459 72.2424C28.5382 71.8209 28.6271 71.4033 28.8061 71.0211C28.9691 70.6853 29.2122 70.3943 29.5144 70.1734C29.8139 69.9749 30.1661 69.8698 30.5261 69.8717C30.8024 69.8604 31.0775 69.9144 31.3288 70.0293C31.58 70.1442 31.8003 70.3167 31.9715 70.5326C32.3611 71.065 32.555 71.7142 32.5207 72.3717C32.532 72.7739 32.432 73.1715 32.2317 73.5211C32.0328 73.8313 31.7462 74.0762 31.4078 74.2251C31.0269 74.3969 30.6118 74.4804 30.1937 74.4694H28.5459V72.2424ZM34.2407 74.4694C34.5659 73.818 34.7294 73.0987 34.7177 72.3717C34.734 71.5272 34.5508 70.6906 34.1829 69.9292C33.8676 69.25 33.3668 68.6726 32.7375 68.2625C32.0805 67.8654 31.3239 67.6612 30.555 67.6734C29.7991 67.6609 29.0542 67.8547 28.4014 68.2338C27.7867 68.6108 27.287 69.1473 26.956 69.7855C26.5868 70.4693 26.4026 71.2367 26.4212 72.0125V74.4694H23.6028V76.8688H26.4212C26.4049 77.6627 26.5576 78.451 26.8693 79.182C27.1629 79.8341 27.6397 80.3879 28.2424 80.7769C28.9071 81.1795 29.676 81.3794 30.4539 81.3516C31.255 81.3798 32.0503 81.2068 32.7665 80.8487C33.3522 80.527 33.8147 80.0219 34.0818 79.4119C34.3728 78.7259 34.5155 77.9868 34.5009 77.2424V76.8401H36.8713V74.4407L34.2407 74.4694Z" fill="#59AB33"/>
<path d="M43.5765 72.7881C43.5787 73.0845 43.5041 73.3765 43.3597 73.6358C43.2215 73.8824 43.0226 74.09 42.7816 74.2393C42.5448 74.3913 42.2685 74.4712 41.9866 74.4692C41.6031 74.475 41.2231 74.3965 40.8737 74.2393C40.5419 74.1007 40.2492 73.8837 40.0209 73.6071V71.768C40.0138 71.4574 40.0885 71.1503 40.2377 70.8772C40.3724 70.627 40.5786 70.422 40.8303 70.2881C41.1029 70.1479 41.4051 70.074 41.712 70.0726H41.8999C42.123 70.0634 42.3457 70.0995 42.5545 70.1785C42.7632 70.2576 42.9536 70.3779 43.114 70.5324C43.2709 70.6967 43.3927 70.8909 43.4722 71.1032C43.5517 71.3156 43.5872 71.5417 43.5765 71.768V72.7881ZM46.9731 74.5123C46.8437 74.5185 46.7143 74.4988 46.5927 74.4543C46.471 74.4099 46.3596 74.3417 46.2649 74.2536C46.1731 74.1612 46.1013 74.0511 46.0541 73.93C46.0068 73.8089 45.9851 73.6794 45.9903 73.5496V71.768C46.0064 71.0517 45.8284 70.3443 45.4749 69.72C45.1214 69.0956 44.6055 68.5772 43.9812 68.2192C43.348 67.8594 42.6291 67.6758 41.8999 67.6875H41.7843C41.0507 67.6774 40.3275 67.8608 39.6884 68.2192C39.0855 68.5602 38.5862 69.0566 38.2431 69.6559C37.8813 70.2906 37.6967 71.0099 37.7083 71.7393V73.5209C37.7135 73.6507 37.6918 73.7801 37.6445 73.9012C37.5973 74.0223 37.5255 74.1325 37.4337 74.2249C37.3368 74.314 37.223 74.3829 37.0988 74.4273C36.9746 74.4717 36.8427 74.4909 36.711 74.4835H36.0028L34.9766 74.8858V76.5094L36.0028 76.8829H36.8122C37.2213 76.869 37.6238 76.7763 37.9974 76.61C38.4016 76.4372 38.762 76.177 39.0525 75.8485C39.488 76.1706 39.9773 76.4138 40.4979 76.5669C41.0072 76.7515 41.5457 76.844 42.0878 76.8398C42.5845 76.8463 43.0771 76.7484 43.5331 76.5525C43.9616 76.3637 44.3531 76.101 44.6895 75.7766C44.9719 76.1279 45.3332 76.4084 45.7446 76.5956C46.1739 76.7952 46.6438 76.8935 47.1177 76.8829H47.5658V74.4835L46.9731 74.5123Z" fill="#59AB33"/>
<path d="M46.3398 74.8714V76.495L47.395 76.8685V74.4691L46.3398 74.8714ZM48.9704 64.4116V73.7076C48.9785 73.8155 48.9633 73.9238 48.9259 74.0254C48.8885 74.1269 48.8298 74.2194 48.7536 74.2967C48.6158 74.4106 48.4415 74.4717 48.2622 74.4691H47.395V76.8685H49.086C49.4903 76.8762 49.8893 76.777 50.2424 76.5812C50.5864 76.376 50.8743 76.0898 51.0807 75.7478C51.2852 75.3941 51.3901 74.992 51.3842 74.584V64.4116H48.9704Z" fill="#59AB33"/>
<path d="M56.2106 64.4116H53.7969V76.8685H56.2106V64.4116Z" fill="#59AB33"/>
<path d="M73.0507 68.478V73.1045C73.0697 73.4779 72.9629 73.847 72.7472 74.1533C72.6129 74.298 72.4458 74.4087 72.2597 74.4762C72.0737 74.5436 71.8741 74.566 71.6776 74.5412H65.5926C65.3771 74.5662 65.1587 74.5426 64.9536 74.4722C64.7485 74.4018 64.5621 74.2865 64.4079 74.1347C64.2538 73.9829 64.1361 73.7985 64.0635 73.5953C63.9908 73.3921 63.9651 73.1752 63.9882 72.9608V70.3458H61.5745V72.8889C61.5668 73.6024 61.7461 74.3055 62.0948 74.9292C62.4401 75.5268 62.9389 76.0226 63.5401 76.366C64.166 76.7164 64.8744 76.8949 65.5926 76.8832H71.6632C72.1471 76.925 72.6344 76.8591 73.0895 76.69C73.5445 76.521 73.9559 76.2532 74.2937 75.9062C74.4427 75.7608 74.565 75.5906 74.6551 75.4033C75.109 74.5449 75.3704 73.5988 75.4211 72.6303C75.4211 72.4579 75.4211 72.2711 75.4211 72.0987V68.478H73.0507ZM69.6252 79.5125C69.3557 79.2535 68.9955 79.1088 68.6207 79.1088C68.2458 79.1088 67.8856 79.2535 67.6161 79.5125C67.4821 79.6377 67.3756 79.7892 67.3035 79.9573C67.2313 80.1255 67.195 80.3067 67.1969 80.4895C67.2023 80.8615 67.3526 81.2168 67.6161 81.4809C67.8856 81.7399 68.2458 81.8846 68.6207 81.8846C68.9955 81.8846 69.3557 81.7399 69.6252 81.4809C69.8887 81.2168 70.039 80.8615 70.0443 80.4895C70.0462 80.3067 70.01 80.1255 69.9378 79.9573C69.8657 79.7892 69.7592 79.6377 69.6252 79.5125ZM76.8521 74.5412C76.6578 74.566 76.4603 74.5436 76.2766 74.4761C76.0928 74.4085 75.9283 74.2978 75.7969 74.1533C75.5719 73.8509 75.4595 73.4801 75.4789 73.1045V68.478H73.0796V73.1045V73.2769C73.0939 73.8636 73.2581 74.4372 73.5566 74.9435C73.7535 75.3233 74.0123 75.668 74.3227 75.9637C74.4678 76.1175 74.6275 76.257 74.7996 76.3803C75.2859 76.7367 75.8722 76.9326 76.4763 76.9407H77.3579V74.5412H76.8521Z" fill="#59AB33"/>
<path d="M81.2588 68.3916V73.7077C81.2698 73.8158 81.256 73.925 81.2184 74.027C81.1809 74.129 81.1206 74.2213 81.042 74.2968C80.9018 74.4065 80.729 74.4671 80.5505 74.4692H76.9805V76.8686H81.3166C81.7258 76.8795 82.1303 76.7802 82.4873 76.5813C82.8335 76.3836 83.1184 76.0954 83.3112 75.7479C83.5208 75.3956 83.6307 74.9935 83.6292 74.5841V68.3916H81.2588ZM79.929 78.995C79.6598 78.7296 79.2964 78.58 78.9173 78.5784C78.5431 78.5837 78.1856 78.7331 77.92 78.995C77.7873 79.1213 77.6817 79.2729 77.6097 79.4409C77.5376 79.6088 77.5006 79.7895 77.5008 79.9721C77.5024 80.349 77.6529 80.7102 77.92 80.9778C78.1879 81.2345 78.5451 81.3786 78.9173 81.3801C79.3006 81.3801 79.6682 81.2287 79.9393 80.9593C80.2103 80.6898 80.3626 80.3244 80.3626 79.9433C80.3628 79.7608 80.3258 79.5801 80.2537 79.4121C80.1817 79.2442 80.0761 79.0926 79.9435 78.9663M83.7882 78.9663C83.5194 78.7116 83.1622 78.5695 82.7909 78.5695C82.4195 78.5695 82.0623 78.7116 81.7935 78.9663C81.6581 79.0904 81.5506 79.2416 81.4784 79.4101C81.4061 79.5785 81.3707 79.7603 81.3744 79.9433C81.3744 80.3244 81.5267 80.6898 81.7977 80.9593C82.0688 81.2287 82.4365 81.3801 82.8198 81.3801C83.2031 81.3801 83.5707 81.2287 83.8418 80.9593C84.1129 80.6898 84.2652 80.3244 84.2652 79.9433C84.2689 79.7603 84.2334 79.5785 84.1612 79.4101C84.0889 79.2416 83.9815 79.0904 83.846 78.9663" fill="#59AB33"/>
<path d="M88.5005 68.2334V76.9978C88.5041 77.288 88.4345 77.5745 88.2981 77.8311C88.167 78.0718 87.9654 78.2672 87.72 78.3914C87.4657 78.5369 87.1748 78.6067 86.8817 78.5926H86V80.992H86.8817C87.602 81.0058 88.3122 80.8219 88.9341 80.4604C89.5328 80.1139 90.0309 79.6188 90.3795 79.0236C90.7383 78.4093 90.9184 77.7079 90.8998 76.9978V68.2334H88.5005Z" fill="#59AB33"/>
<path d="M99.7729 69.728C99.4188 69.1371 98.922 68.6433 98.3276 68.2912C97.6739 67.9287 96.9369 67.7406 96.1884 67.7452H94.1938V70.1446H96.1884C96.5116 70.1403 96.8304 70.2195 97.1134 70.3745C97.3855 70.5089 97.608 70.7251 97.7494 70.9923C97.9102 71.2666 97.9904 71.5802 97.9807 71.8975V74.5268H92.9219V76.9262H100.38V71.8975C100.387 71.1577 100.197 70.4293 99.8308 69.7854M100.12 76.9693H102.331V74.5843H100.12V76.9693Z" fill="#59AB33"/>
<path d="M101.047 74.8713V76.4948L102.088 76.8684V74.4834L101.047 74.8713ZM105.253 68.4058V73.0322C105.275 73.4039 105.173 73.7725 104.964 74.0811C104.838 74.229 104.677 74.3432 104.495 74.4135C104.313 74.4837 104.117 74.5077 103.923 74.4834H102.088V76.8684H103.88C104.364 76.9123 104.852 76.8473 105.307 76.6782C105.763 76.509 106.174 76.2401 106.51 75.8914C106.655 75.7422 106.777 75.5727 106.872 75.3885C107.399 74.3666 107.667 73.2322 107.652 72.0839V68.4776L105.253 68.4058ZM105.658 64.7276C105.392 64.4656 105.034 64.3163 104.66 64.3109C104.281 64.3125 103.918 64.4622 103.649 64.7276C103.464 64.93 103.342 65.1804 103.296 65.4495C103.249 65.7186 103.281 65.9952 103.387 66.2469C103.494 66.4987 103.67 66.7151 103.895 66.871C104.121 67.0269 104.386 67.1157 104.66 67.127C105.044 67.127 105.411 66.9757 105.682 66.7062C105.953 66.4368 106.106 66.0713 106.106 65.6902C106.106 65.5077 106.069 65.327 105.997 65.1591C105.925 64.9911 105.819 64.8395 105.687 64.7132M109.04 74.469C108.844 74.4932 108.646 74.4692 108.462 74.3991C108.278 74.3289 108.114 74.2147 107.985 74.0667C107.765 73.7624 107.658 73.3918 107.681 73.0178V68.4776H105.267V73.2764C105.296 73.861 105.459 74.4312 105.744 74.9431C105.941 75.3266 106.206 75.672 106.525 75.9632C106.674 76.1131 106.833 76.2524 107.002 76.3799C107.489 76.7446 108.083 76.9413 108.693 76.9402H111.511V74.5552L109.04 74.469ZM109.531 64.7132C109.403 64.5789 109.248 64.4725 109.077 64.4008C108.905 64.329 108.72 64.2936 108.534 64.2966C108.155 64.2982 107.791 64.4478 107.522 64.7132C107.27 64.9797 107.13 65.3317 107.13 65.6974C107.13 66.0632 107.27 66.4152 107.522 66.6816C107.789 66.9523 108.153 67.1073 108.534 67.1127C108.807 67.0988 109.071 67.0081 109.294 66.8512C109.517 66.6943 109.691 66.4777 109.796 66.2264C109.9 65.9752 109.931 65.6996 109.884 65.4317C109.837 65.1639 109.715 64.9147 109.531 64.7132Z" fill="#59AB33"/>
<path d="M110.238 74.8714V76.495L111.279 76.8685V74.4691L110.238 74.8714ZM112.869 64.4116V73.7076C112.877 73.8155 112.862 73.9238 112.824 74.0254C112.787 74.1269 112.728 74.2194 112.652 74.2967C112.514 74.4106 112.34 74.4717 112.161 74.4691H111.279V76.8685H112.97C113.374 76.8776 113.774 76.7783 114.126 76.5812C114.473 76.38 114.762 76.0929 114.965 75.7478C115.181 75.3982 115.291 74.9942 115.283 74.584V64.4116H112.869Z" fill="#59AB33"/>
<path d="M120.097 64.4116H117.684V76.8685H120.097V64.4116Z" fill="#59AB33"/>
<path d="M134.146 72.8889V76.136C134.16 76.6754 134.036 77.2094 133.785 77.6877C133.526 78.1197 133.157 78.4764 132.715 78.7222C132.238 78.9849 131.7 79.1186 131.154 79.1102H131.039C130.5 79.118 129.967 78.9894 129.492 78.7366C129.039 78.4998 128.667 78.1348 128.423 77.6877C128.166 77.2107 128.037 76.6766 128.047 76.136V72.6877H125.618V76.136C125.597 77.0916 125.837 78.035 126.312 78.8659C126.773 79.6685 127.442 80.3334 128.249 80.7912C129.09 81.2665 130.043 81.5095 131.01 81.4952H131.125C132.092 81.5095 133.045 81.2665 133.886 80.7912C134.701 80.3378 135.375 79.6722 135.837 78.8659C136.311 78.0338 136.555 77.0921 136.545 76.136V72.8889H134.146ZM129.955 82.7452C129.752 82.5627 129.501 82.4411 129.232 82.3946C128.962 82.348 128.685 82.3784 128.432 82.4822C128.18 82.586 127.962 82.759 127.804 82.981C127.646 83.2031 127.555 83.4651 127.541 83.7366C127.536 83.9219 127.571 84.1062 127.643 84.2771C127.715 84.448 127.823 84.6017 127.96 84.728C128.163 84.9105 128.413 85.0321 128.683 85.0786C128.952 85.1252 129.229 85.0948 129.482 84.991C129.735 84.8871 129.953 84.7142 130.111 84.4921C130.269 84.2701 130.36 84.0081 130.374 83.7366C130.368 83.3647 130.218 83.0093 129.955 82.7452ZM133.814 82.7452C133.542 82.485 133.179 82.3407 132.802 82.3429C132.419 82.3429 132.051 82.4943 131.78 82.7637C131.509 83.0332 131.357 83.3986 131.357 83.7797C131.355 83.966 131.392 84.1506 131.467 84.3215C131.542 84.4923 131.652 84.6455 131.79 84.7711C132.056 85.0331 132.413 85.1824 132.788 85.1877C133.167 85.1861 133.53 85.0365 133.799 84.7711C133.934 84.6432 134.04 84.4892 134.112 84.3186C134.185 84.1481 134.221 83.9647 134.218 83.7797C134.213 83.4078 134.063 83.0524 133.799 82.7883M138.135 67.7452C137.421 67.7404 136.718 67.9239 136.097 68.2768C135.494 68.6173 134.995 69.1138 134.652 69.7136C134.297 70.3248 134.112 71.0192 134.117 71.7251V75.4176H136.545V71.7251C136.541 71.4393 136.61 71.1571 136.748 70.9061C136.875 70.6724 137.065 70.4785 137.297 70.3458C137.544 70.209 137.824 70.1396 138.107 70.1446H139.248V76.9262H141.662V67.7596L138.135 67.7452ZM141.286 76.9119H143.83V74.5268H141.286V76.9119Z" fill="#59AB33"/>
<path d="M150.737 72.8888C150.733 73.1682 150.653 73.4414 150.505 73.679C150.363 73.9333 150.153 74.1433 149.898 74.2854C149.642 74.4275 149.352 74.4961 149.06 74.4836H148.742C148.464 74.4786 148.193 74.3938 147.962 74.2393C147.72 74.0833 147.522 73.8706 147.383 73.62C147.244 73.3693 147.17 73.0886 147.167 72.8026V71.7824C147.159 71.4763 147.234 71.1738 147.383 70.906C147.523 70.6596 147.728 70.4559 147.976 70.3169C148.241 70.1716 148.54 70.0973 148.843 70.1014H149.031C149.334 70.0973 149.633 70.1716 149.898 70.3169C150.151 70.455 150.36 70.6586 150.505 70.906C150.655 71.1738 150.73 71.4763 150.722 71.7824L150.737 72.8888ZM152.601 69.6847C152.251 69.0907 151.753 68.596 151.156 68.2479C150.531 67.8789 149.816 67.6899 149.089 67.702H148.901C148.183 67.6989 147.477 67.8831 146.853 68.236C146.229 68.589 145.709 69.0984 145.345 69.7135C144.984 70.3429 144.799 71.0576 144.811 71.7824V72.7882C144.803 73.102 144.857 73.4143 144.97 73.7077C145.067 73.9857 145.198 74.251 145.36 74.498H143.77L142.715 74.8571V76.5094L143.77 76.883H149.393C150.062 76.8833 150.719 76.7099 151.3 76.3801C151.87 76.0469 152.342 75.5724 152.671 75.0032C153.001 74.4341 153.176 73.7896 153.179 73.133V71.6962C153.184 70.9722 153 70.2593 152.645 69.6273M150.028 63.8801C149.9 63.7465 149.745 63.6406 149.573 63.5689C149.402 63.4972 149.217 63.4613 149.031 63.4635C148.65 63.4689 148.286 63.6238 148.019 63.8945C147.844 64.0967 147.729 64.3433 147.687 64.6067C147.645 64.8701 147.678 65.14 147.781 65.386C147.885 65.6321 148.055 65.8447 148.273 66C148.492 66.1552 148.749 66.2471 149.017 66.2652C149.203 66.2757 149.39 66.2466 149.565 66.1797C149.739 66.1128 149.897 66.0097 150.028 65.8773C150.162 65.743 150.268 65.5838 150.34 65.4087C150.412 65.2337 150.449 65.0462 150.448 64.8571C150.449 64.6745 150.412 64.4935 150.34 64.3255C150.268 64.1574 150.162 64.0059 150.028 63.8801Z" fill="#59AB33"/>
<path d="M161.203 64.6558L157.922 66.15L158.645 68.6069L160.451 67.1701L160.393 76.8971H163.169V64.6558H161.203Z" fill="#59AB33"/>
<path d="M176.782 73.0468C176.794 73.3609 176.725 73.6726 176.58 73.952C176.438 74.2064 176.221 74.4119 175.958 74.5411C175.684 74.6926 175.376 74.7717 175.062 74.771C174.716 74.7831 174.369 74.7394 174.036 74.6417C173.774 74.5541 173.536 74.4064 173.342 74.2106V71.6675C173.335 71.3569 173.41 71.0498 173.559 70.7767C173.7 70.5222 173.91 70.3128 174.166 70.1733C174.442 70.0293 174.751 69.96 175.062 69.9721C175.293 69.9631 175.524 70.0005 175.74 70.082C175.956 70.1634 176.153 70.2873 176.32 70.4463C176.476 70.6084 176.597 70.8002 176.676 71.01C176.756 71.2199 176.792 71.4435 176.782 71.6675V73.0468ZM180.121 74.4836C180 74.4892 179.878 74.4704 179.764 74.4284C179.65 74.3865 179.545 74.3222 179.456 74.2394C179.365 74.1535 179.294 74.0482 179.249 73.9312C179.204 73.8143 179.186 73.6888 179.196 73.5641V71.6819C179.203 70.9467 179.014 70.2228 178.647 69.5842C178.298 68.989 177.8 68.494 177.202 68.1474C176.556 67.7901 175.83 67.6025 175.091 67.6025C174.353 67.6025 173.626 67.7901 172.981 68.1474C172.381 68.4918 171.882 68.9874 171.536 69.5842C171.174 70.2189 170.989 70.9381 171.001 71.6675V73.6647C170.474 73.7793 169.98 74.0101 169.555 74.34C169.161 74.6693 168.845 75.0815 168.63 75.5468C168.421 76.0328 168.313 76.5557 168.312 77.0842V81.4808H170.726V77.0986C170.717 76.8174 170.809 76.5422 170.986 76.3227C171.155 76.1146 171.399 75.9804 171.666 75.9491C172.078 76.3521 172.57 76.6653 173.111 76.8687C173.73 77.079 174.38 77.1811 175.033 77.1704C175.585 77.1811 176.132 77.0733 176.638 76.8543C177.118 76.6467 177.547 76.3379 177.895 75.9491C178.171 76.2387 178.499 76.4728 178.864 76.6388C179.25 76.8085 179.67 76.8919 180.092 76.8831H180.714V74.4836H180.121Z" fill="#59AB33"/>
<path d="M187.669 72.8888C187.67 73.1669 187.595 73.4402 187.452 73.679C187.304 73.9191 187.101 74.121 186.859 74.2681C186.613 74.408 186.334 74.4823 186.05 74.4836H185.689C185.399 74.48 185.117 74.3899 184.879 74.225C184.641 74.0668 184.443 73.8552 184.301 73.6071C184.16 73.3472 184.09 73.0548 184.099 72.7594V71.7393C184.087 71.4345 184.157 71.1321 184.301 70.8629C184.445 70.6194 184.649 70.4166 184.894 70.2738C185.164 70.1273 185.468 70.0531 185.775 70.0583H185.949C186.256 70.0544 186.56 70.1285 186.83 70.2738C187.075 70.4166 187.279 70.6194 187.423 70.8629C187.572 71.1307 187.647 71.4332 187.64 71.7393L187.669 72.8888ZM189.533 69.6847C189.188 69.0866 188.69 68.5907 188.088 68.2479C187.457 67.8805 186.737 67.6917 186.007 67.702H185.833C185.102 67.6879 184.381 67.877 183.752 68.2479C183.154 68.596 182.657 69.0907 182.306 69.6847C181.951 70.3167 181.767 71.0296 181.772 71.7537V72.7882C181.771 73.1015 181.825 73.4125 181.931 73.7077C182.027 73.9888 182.164 74.2549 182.335 74.498H180.731L179.676 74.8571V76.5094L180.731 76.883H186.325C186.99 76.8877 187.645 76.7158 188.222 76.3849C188.799 76.054 189.276 75.5763 189.605 75.0008C189.937 74.4334 190.111 73.7891 190.111 73.133V71.6962C190.123 70.9713 189.938 70.2567 189.577 69.6273M184.937 63.8801C184.667 63.6212 184.307 63.4764 183.932 63.4764C183.558 63.4764 183.197 63.6212 182.928 63.8801C182.792 64.0042 182.685 64.1555 182.613 64.3239C182.54 64.4923 182.505 64.6741 182.509 64.8571C182.505 65.0445 182.54 65.2307 182.612 65.4039C182.684 65.577 182.792 65.7333 182.928 65.8629C183.197 66.1219 183.558 66.2666 183.932 66.2666C184.307 66.2666 184.667 66.1219 184.937 65.8629C185.204 65.5953 185.354 65.2341 185.356 64.8571C185.356 64.6746 185.319 64.4939 185.247 64.326C185.175 64.158 185.07 64.0064 184.937 63.8801ZM188.782 63.8801C188.653 63.7465 188.498 63.6406 188.326 63.5689C188.155 63.4972 187.97 63.4613 187.784 63.4635C187.405 63.4651 187.042 63.6147 186.773 63.8801C186.64 64.0064 186.534 64.158 186.462 64.326C186.39 64.4939 186.353 64.6746 186.353 64.8571C186.353 65.2382 186.506 65.6036 186.777 65.8731C187.048 66.1425 187.415 66.2939 187.799 66.2939C187.984 66.2979 188.168 66.2643 188.339 66.1951C188.511 66.126 188.666 66.0227 188.796 65.8916C189.063 65.624 189.214 65.2628 189.215 64.8859C189.215 64.7033 189.178 64.5226 189.106 64.3547C189.034 64.1868 188.929 64.0351 188.796 63.9089" fill="#59AB33"/>
<path d="M193.218 68.2334V76.9978C193.224 77.29 193.149 77.5783 193.002 77.8311C192.87 78.0667 192.675 78.2609 192.438 78.3914C192.178 78.5352 191.883 78.6048 191.585 78.5926H190.66V80.992H191.542C192.266 81.0019 192.98 80.8183 193.609 80.4604C194.212 80.1193 194.711 79.623 195.054 79.0236C195.411 78.4079 195.596 77.7084 195.589 76.9978V68.2334H193.218Z" fill="#59AB33"/>
<path d="M265.08 62.8455C265.08 63.4023 265.012 63.9571 264.878 64.4978C264.459 66.1692 263.414 67.6187 261.956 68.5508C260.499 69.483 258.739 69.8277 257.035 69.5145C255.331 69.2014 253.811 68.2541 252.786 66.8656C251.76 65.4772 251.305 63.7522 251.515 62.0422C251.724 60.3322 252.582 58.766 253.913 57.6628C255.244 56.5595 256.948 56.0023 258.677 56.1048C260.407 56.2072 262.033 56.9615 263.222 58.214C264.412 59.4665 265.077 61.1229 265.08 62.8455Z" fill="#59AB33"/>
</svg>
